<svg xmlns="http://www.w3.org/2000/svg" viewBox="0 0 256 256" width="40" height="40">
  <rect width="256" height="256" fill="none"/>
  <rect x="32" y="32" width="192" height="192" rx="40" fill="#25D366"/>
  <path d="M128,24A104,104,0,0,0,57.88,192.35L36.07,219.93a8,8,0,0,0,10.5,9.4l28.3-15.13A104,104,0,1,0,128,24Zm55.52,107.36c-1.16,2.33-3.65,3.71-6.5,3.71a18.14,18.14,0,0,1-3.76-.39,41.81,41.81,0,0,1-7.33-2.11q-4.65-1.38-8.64-3.15c-24.77-11.38-40.75-36.05-40.75-63.11A36.32,36.32,0,0,1,152.88,67a10.67,10.67,0,0,1,7.56,3.15l8.6,9.52a10.67,10.67,0,0,1,1.43,12.62l-6.19,10.36a8,8,0,0,0-.8,7.9,28.47,28.47,0,0,0,14.22,17.91l9.44,5.28a10.67,10.67,0,0,1,4.27,14.07Z" fill="#fff"/>
</svg>
